<?xml version="1.0" encoding="UTF-8" standalone="no"?>
<!-- Created with Inkscape (http://www.inkscape.org/) -->

<svg
   xmlns:dc="http://purl.org/dc/elements/1.1/"
   xmlns:cc="http://creativecommons.org/ns#"
   xmlns:rdf="http://www.w3.org/1999/02/22-rdf-syntax-ns#"
   xmlns:svg="http://www.w3.org/2000/svg"
   xmlns="http://www.w3.org/2000/svg"
   xmlns:sodipodi="http://sodipodi.sourceforge.net/DTD/sodipodi-0.dtd"
   xmlns:inkscape="http://www.inkscape.org/namespaces/inkscape"
   width="343.28101"
   height="138.61694"
   id="svg7627"
   version="1.1"
   inkscape:version="0.48.3.1 r9886"
   sodipodi:docname="Neues Dokument 21">
  <defs
     id="defs7629" />
  <sodipodi:namedview
     id="base"
     pagecolor="#ffffff"
     bordercolor="#666666"
     borderopacity="1.0"
     inkscape:pageopacity="0.0"
     inkscape:pageshadow="2"
     inkscape:zoom="0.35"
     inkscape:cx="55.92621"
     inkscape:cy="115.02275"
     inkscape:document-units="px"
     inkscape:current-layer="layer1"
     showgrid="false"
     fit-margin-top="0"
     fit-margin-left="0"
     fit-margin-right="0"
     fit-margin-bottom="0"
     inkscape:window-width="613"
     inkscape:window-height="438"
     inkscape:window-x="51"
     inkscape:window-y="24"
     inkscape:window-maximized="0" />
  <metadata
     id="metadata7632">
    <rdf:RDF>
      <cc:Work
         rdf:about="">
        <dc:format>image/svg+xml</dc:format>
        <dc:type
           rdf:resource="http://purl.org/dc/dcmitype/StillImage" />
        <dc:title></dc:title>
      </cc:Work>
    </rdf:RDF>
  </metadata>
  <g
     inkscape:label="Ebene 1"
     inkscape:groupmode="layer"
     id="layer1"
     transform="translate(-294.07379,-508.76799)">
    <path
       style="fill:#005a9c"
       inkscape:connector-curvature="0"
       id="path7540"
       d="m 395.00379,522.50499 c 0,0 -14.683,-0.479 -20.606,-13.737 0,0 -13.741,15.399 -35.065,20.85 l 1.433,3.787 v 49.04 l -4.041,4.029 c 0,0 -16.103,-11.852 -17.525,-26.059 -1.42,-14.22 1.424,-25.126 17.3,-38.852 0,0 4.729,-4.518 12.782,-7.347 v -1.662 c -25.59,0 -55.208,23.198 -55.208,50.224 0,26.773 20.321,42.626 47.155,42.626 0,0 17.063,0.176 29.707,-6.779 v 6.689 c 0,0.52 -1.044,0.418 -1.044,0.418 -3.663,0 -6.62,2.428 -6.62,5.42 0,2.994 2.958,5.424 6.62,5.424 3.661,0 6.615,-2.43 6.615,-5.424 v -15.109 c 0.014,0 3.586,-2.703 4.758,-3.658 1.18,-0.945 0.225,-2.834 -1.169,-2.365 -1.435,0.479 -3.573,1.42 -3.573,1.42 v -62.771 c 0.001,0 12.328,1.17 18.481,-6.164 l 0,0 z m -24.157,70.357 c -21.326,2.365 -27.011,-2.363 -27.011,-2.363 l 17.535,-14.924 v -51.181 c 0,-2.367 9.476,3.545 9.476,3.545 v 64.923 l 0,0 z" />
    <path
       style="fill:#005a9c"
       inkscape:connector-curvature="0"
       id="path7542"
       d="m 422.24379,577.46199 c 0,0 0,-30.096 0,-31.267 0,-1.194 2.363,-3.789 2.363,-3.789 -8.757,-0.94 -22.735,-7.811 -22.735,-7.811 -7.812,6.616 -20.383,7.332 -20.383,7.332 -0.225,1.424 1.903,4.016 1.903,4.016 v 30.812 c 0,0 -0.946,0.944 -3.071,3.786 -2.137,2.842 -0.955,2.842 -0.955,2.842 17.538,1.877 24.632,9.225 24.632,9.225 7.828,-8.757 21.087,-10.658 21.087,-10.658 -2.124,-0.94 -2.841,-4.488 -2.841,-4.488 l 0,0 z m -14.218,2.365 c -9.474,-1.903 -11.358,-4.013 -11.358,-4.013 v -31.995 c 0,-0.706 11.358,4.023 11.358,4.023 v 31.985 l 0,0 z" />
    <path
       style="fill:#005a9c"
       inkscape:connector-curvature="0"
       id="path7544"
       d="m 513.20779,577.46199 c 0,0 0,-30.096 0,-31.267 0,-1.194 2.375,-3.789 2.375,-3.789 -8.764,-0.94 -22.746,-7.811 -22.746,-7.811 -7.813,6.616 -20.368,7.332 -20.368,7.332 -0.24,1.424 1.896,4.016 1.896,4.016 v 30.812 c 0,0 -0.94,0.944 -3.082,3.786 -2.125,2.842 -0.954,2.842 -0.954,2.842 17.549,1.877 24.648,9.225 24.648,9.225 7.815,-8.757 21.084,-10.658 21.084,-10.658 -2.126,-0.94 -2.853,-4.488 -2.853,-4.488 l 0,0 z m -14.202,2.365 c -9.478,-1.903 -11.376,-4.013 -11.376,-4.013 v -31.995 c 0,-0.706 11.376,4.023 11.376,4.023 v 31.985 l 0,0 z" />
    <path
       style="fill:#005a9c"
       inkscape:connector-curvature="0"
       id="path7546"
       d="m 570.15079,580.31999 c -0.012,0 -0.051,0 -0.076,-0.015 0,0 -0.527,0.782 0.076,0.015 l 0,0 z" />
    <path
       style="fill:#005a9c"
       inkscape:connector-curvature="0"
       id="path7548"
       d="m 615.31879,579.60299 c -3.322,-0.482 -4.746,-4.517 -4.746,-4.517 0,0 0,-28.891 0,-30.083 0,-1.18 0,-6.15 0,-6.15 -10.188,-3.312 -20.143,-6.87 -20.143,-6.87 -9.473,5.674 -19.652,8.754 -19.652,8.754 -0.238,1.424 1.887,4.028 1.887,4.028 v 32.223 c 0,0 0.717,-0.946 -1.424,1.887 -0.537,0.73 -0.879,1.171 -1.094,1.447 10.166,1.244 21.375,12.291 21.375,12.291 l 8.156,-8.757 9.221,8.757 10.906,-12.307 -4.486,-0.703 0,0 z m -18.949,-0.946 c -4.275,-3.319 -10.189,-6.191 -10.189,-6.191 v -30.998 c -2.922,-1.775 10.189,4.003 10.189,4.003 v 33.186 l 0,0 z" />
    <path
       style="fill:#005a9c"
       inkscape:connector-curvature="0"
       id="path7550"
       d="m 427.57979,542.87599 11.962,-9.233 c 0,0 7.591,4.49 8.761,6.377 0.01,0 1.193,0.971 10.895,-5.42 l 1.673,-1.193 c 0,0 6.151,5.658 11.362,7.092 0,0 -1.184,10.432 -19.666,5.449 0,0 -4.016,-0.704 -4.016,1.195 0,1.887 0,33.402 0,33.402 h 5.211 c 0,0 -8.063,4.719 -10.909,9.01 -2.828,4.25 -2.629,3.057 -2.629,3.057 0.01,0 -0.92,-5.198 -11.11,-11.121 l -0.228,-0.706 h 4.742 v -31.756 c 0,10e-4 -2.027,-5.915 -6.048,-6.153 l 0,0 z" />
    <path
       style="fill:#005a9c"
       inkscape:connector-curvature="0"
       id="path7552"
       d="m 563.91079,541.46699 c -5.008,-2.025 -13.273,-8.545 -13.273,-8.545 l -1.648,1.184 c -9.725,6.391 -12.572,6.631 -12.572,6.631 -1.17,-1.887 -8.994,-6.391 -8.994,-6.391 l -10.654,8.063 c 4.033,0.215 5.688,6.873 5.688,6.873 v 31.729 h -4.746 l 0.24,0.718 c 10.189,5.925 11.35,10.882 11.35,10.882 0,0 -0.451,1.424 2.391,-2.832 2.855,-4.252 10.908,-8.993 10.908,-8.993 h -5.225 c 0,0 0,-31.504 0,-33.417 l 6.168,-4.745 4.73,4.039 v 33.883 h -2.844 c 0,0 10.568,9.956 11.033,12.067 0,0 9.813,-11.35 11.008,-11.35 h -4.742 v -35.314 c 0.003,-10e-4 2.364,-4.019 1.182,-4.482 l 0,0 z" />
    <path
       style="fill:#005a9c"
       inkscape:connector-curvature="0"
       id="path7564"
       d="m 532.90879,642.57099 c -1.209,0.328 -2.568,0.689 -3.498,-0.102 -1.219,-1.061 -0.643,-12.178 -0.791,-15.086 -0.037,-0.832 0.328,-1.373 0,-3.031 0,-0.043 -6.996,-1.938 -11.688,-6.531 -2.758,2.994 -7.584,6.404 -13.387,7.988 0.971,0.453 1.383,1.209 1.572,1.787 v 12.961 c -0.189,0.891 -0.536,1.281 -1.343,1.785 1.747,0.463 6.439,1.711 11.248,4.617 0.463,0.277 4.314,-2.906 6.176,-3.387 0.98,1.398 4.176,4.66 7.309,3.271 1.07,-0.461 3.285,-2.967 4.404,-3.807 -0.029,-0.01 -0.002,-0.414 -0.002,-0.465 l 0,0 z m -19.701,-4.391 c 0,0 -0.053,-13.174 0,-13.389 -0.053,0 6.93,3.713 6.93,3.713 l 0.053,12.393 -6.983,-2.717 0,0 z" />
    <path
       style="fill:#005a9c"
       inkscape:connector-curvature="0"
       id="path7566"
       d="m 495.76679,618.94199 c 3.146,3.109 4.694,3.51 8.006,5.086 -0.82,3.598 -7.613,4.594 -11.928,2.467 -0.729,-0.352 -2.365,0.639 -2.365,0.639 l -0.038,14.635 2.062,0.023 -6.64,5.057 -5.853,-5.057 2.365,-0.023 v -15.865 c -1.243,-1.611 -3.22,-1.182 -5.463,-0.252 l 6.241,-5.916 c 2.293,-1.961 5.826,4.002 7.439,3.838 0.666,-0.086 3.698,-2.906 4.388,-3.508 0.378,-0.333 1.673,-1.223 1.786,-1.124 l 0,0 z" />
    <path
       style="fill:#005a9c"
       inkscape:connector-curvature="0"
       id="path7568"
       d="m 431.99479,618.62999 c 5.32,-0.77 7.332,5.471 10.229,7.521 2.704,-2.189 3.714,-6.529 7.876,-7.209 1.334,-0.201 3.045,0.479 3.598,1.346 1.184,1.877 -0.086,4.182 -2.025,2.369 -0.413,-0.377 -0.791,-0.705 -1.572,-0.445 -0.833,0.266 -5.75,6.129 -5.625,6.986 l 0.114,0.086 c 0.553,1.131 8.681,10.955 9.224,11.373 0.014,0.012 0.225,0.238 0.225,0.238 1.965,0.414 2.264,-2.113 4.394,-1.824 0.339,2.49 -3.901,7.057 -5.739,7.771 -7.636,3.023 -10.368,-7.447 -14.396,-10.014 -0.842,0.492 -4.275,4.77 -5.295,6.205 -0.842,1.182 -1.524,2.557 -2.819,3.244 -1.521,0.807 -3.309,-0.566 -4.051,-1.572 -0.83,-1.143 -2.791,-6.051 1.132,-4.051 0.655,0.354 1.7,0.998 2.593,0.678 0.657,-0.223 6.292,-6.654 6.405,-7.205 0.051,-0.266 -0.015,-0.568 -0.113,-0.779 -0.519,-1.182 -4.818,-6.719 -6.292,-7.891 l -0.114,-0.084 c -1.748,-0.543 -2.325,1.896 -4.616,1.229 0.061,-1.408 0.578,-2.137 1.131,-3.033 0.541,-0.914 2.076,-3.205 2.238,-3.381 0.704,-0.742 2.278,-1.42 3.498,-1.558 l 0,0 z" />
    <path
       style="fill:#005a9c"
       inkscape:connector-curvature="0"
       id="path7570"
       d="m 469.56179,612.08499 c 0.176,0.164 0.488,0.117 0.553,0.342 l -0.026,6.768 h 5.461 c 0,0.805 0,1.762 0,2.559 0,0 -4.092,-0.281 -5.095,0.363 l -0.628,0.303 v 16.58 c 0.01,0 1.456,1.145 1.986,1.209 0.154,0.01 0.303,0.035 0.442,0 0.816,-0.139 3.948,-2.266 4.402,-0.553 0.152,0.605 -0.136,1.08 -0.351,1.357 -0.69,0.881 -10.227,5.951 -10.227,5.951 0,0 -5.626,-4.746 -6.077,-5.172 -0.453,-0.43 1.573,-2.137 1.573,-2.137 0.298,-1.168 0,-10.506 0,-13.74 0,-0.967 0.275,-2.439 0,-3.359 0.125,-1.205 -3.688,-1.041 -3.688,-1.041 l -0.014,-2.32 c 0.607,-0.373 2.668,-0.135 3.489,-0.252 0.099,-0.428 0.076,-1.873 0.324,-2.361 0.252,-0.482 6.884,-4.03 7.876,-4.497 l 0,0 z" />
    <path
       style="fill:#005a9c"
       inkscape:connector-curvature="0"
       id="path7572"
       d="m 394.85279,599.37799 c 1.045,-0.164 2.604,0.504 3.498,0.682 2.613,0.529 5.535,0.691 8.214,0.893 4.654,0.338 8.771,-0.037 12.821,-0.578 1.344,-0.164 3.08,-0.742 4.275,-0.443 -0.643,1.334 -1.395,2.09 -2.25,3.16 -0.842,1.018 -3.27,4.43 -4.391,4.832 -0.567,0.186 -1.136,0 -1.688,0 -2.251,0.025 -5.421,0.15 -7.765,0.125 -1.871,-0.041 -4.15,-0.453 -6.077,0 -0.363,3.246 -0.603,6.934 0.13,9.773 1.282,-0.311 2.11,-0.992 3.243,-1.346 3.501,-1.057 8.856,2.154 11.375,0.328 0.289,-0.199 0.604,-0.916 1.006,-0.994 3.299,-0.629 -1.131,6.822 -2.479,7.426 -2.251,1.006 -5.913,0.666 -8.557,0.213 -0.893,-0.152 -2.613,-0.631 -3.709,-0.213 -2.076,0.766 -1.233,7.197 -1.233,9.998 0,-0.027 0.009,0.271 0,0.355 -0.151,1.637 -0.075,2.289 -0.667,3.244 -0.389,0.609 -0.526,1.07 -0.791,1.787 1.897,0 3.309,-0.516 4.958,-0.654 3.055,-0.277 5.783,0.619 8.201,1.031 1.813,0.264 4.944,0.666 6.303,-0.377 0.972,-0.717 1.547,-3.42 2.593,-3.924 0.363,-0.164 1.02,-0.104 1.334,0 0.592,0.176 1.105,0.678 1.031,1.469 -0.09,0.758 -5.635,10.459 -6.076,10.682 0,0.043 0,0.09 0,0.117 -0.086,0.025 -0.341,0.1 -0.341,0.1 -0.377,0.152 -1.044,0.152 -1.571,0.137 -5.032,-0.375 -10.318,-1.934 -15.201,-2.373 -1.657,-0.139 -3.608,-0.139 -5.28,0 -1.3,0.1 -6.117,1.672 -6.975,1.113 -1.383,-0.865 0.808,-2.486 1.234,-2.791 0.519,-0.414 1.374,-1.256 1.573,-1.938 0.518,-1.607 0.1,-5.207 0,-6.631 -0.414,-6.25 0.05,-13.232 0.115,-19.789 0.01,-1.5 -0.289,-3.309 0.224,-4.605 0.558,-1.447 2.503,-2.303 3.374,-3.619 -3.46,-1.311 -5.963,3.535 -7.75,1.918 -0.632,-0.537 -0.691,-1.029 -0.114,-1.682 1.901,-2.189 4.125,-4.139 6.076,-6.307 0.279,-0.313 0.845,-1.043 1.337,-1.119 l 0,0 z" />
    <path
       style="fill:#005a9c"
       inkscape:connector-curvature="0"
       id="path7574"
       d="m 631.69979,581.34999 c 0.238,0.14 0.352,0.378 0.352,0.732 0,0.324 -0.113,0.552 -0.365,0.68 -0.139,0.061 -0.352,0.087 -0.631,0.087 h -1.406 v -1.587 h 1.43 c 0.279,0 0.468,0.023 0.62,0.088 l 0,0 z m -3.271,-1.137 v 5.955 h 1.221 v -2.341 h 1.281 c 0.363,0 0.615,0.077 0.756,0.2 0.125,0.117 0.201,0.378 0.201,0.76 v 0.564 c 0,0.176 0.027,0.34 0.063,0.488 0.012,0.104 0.053,0.214 0.076,0.328 h 1.369 v -0.148 c -0.125,-0.075 -0.201,-0.18 -0.225,-0.355 -0.023,-0.061 -0.039,-0.263 -0.039,-0.539 v -0.403 c 0,-0.402 -0.049,-0.717 -0.16,-0.919 -0.129,-0.202 -0.316,-0.376 -0.594,-0.466 0.338,-0.11 0.578,-0.313 0.717,-0.575 0.137,-0.29 0.213,-0.554 0.213,-0.855 0,-0.213 -0.049,-0.44 -0.125,-0.617 -0.078,-0.176 -0.164,-0.355 -0.299,-0.488 -0.152,-0.18 -0.342,-0.344 -0.568,-0.445 -0.225,-0.059 -0.541,-0.139 -0.973,-0.139 h -2.914 v -0.005 z" />
    <path
       style="fill:#005a9c"
       inkscape:connector-curvature="0"
       id="path7576"
       d="m 630.51879,590.39899 c 3.787,0 6.836,-3.052 6.836,-6.823 0,-3.787 -3.051,-6.851 -6.836,-6.851 -3.773,0 -6.836,3.063 -6.836,6.851 0,3.773 3.062,6.823 6.836,6.823 l 0,0 z m 0,-1.056 c 3.201,0 5.779,-2.58 5.779,-5.766 0,-3.203 -2.578,-5.79 -5.779,-5.79 -3.189,0 -5.775,2.587 -5.775,5.79 -10e-4,3.186 2.585,5.766 5.775,5.766 l 0,0 z" />
  </g>
</svg>
